<svg xmlns="http://www.w3.org/2000/svg" viewBox="0 0 250 70" width="250" height="70">
	<style>
		tspan { white-space:pre }
	</style>
	<path id="InvictuSys " fill="#ffffff" d="M2.44 50.49C2.44 55 2.51 55 7.77 55L9.47 55L9.47 6.23C9.47 1.72 9.4 1.72 3.99 1.72L2.44 1.72ZM24.57 25.1L23.9 23.03L30.71 21.03C35 21.18 34.26 23.33 34.26 35.24L34.26 50.56C34.26 55 34.26 55 40.92 55L40.92 35.32C40.92 16.96 40.55 14.74 30.04 14.74L24.57 16.82C24.42 15.26 23.31 15.26 17.98 15.26L17.98 50.56C17.98 55 17.98 55 24.57 55ZM53.43 19.48C52.61 15.78 52.39 15.26 46.1 15.26L54.24 55L62.45 55L69.56 20.07C70 17.7 70.15 17.41 70.15 17.19C70.15 15.34 68.23 15.26 64.08 15.26L58.61 46.19L58.38 46.19ZM75.7 6.97C75.7 9.34 77.77 11.49 80.14 11.49C82.51 11.49 84.58 9.34 84.58 6.97C84.58 4.46 82.51 2.61 80.14 2.61C77.77 2.61 75.7 4.46 75.7 6.97ZM76.88 50.86C76.88 55.3 76.88 55.3 83.47 55.3L83.47 19.7C83.47 15.26 83.47 15.26 76.88 15.26ZM105.89 21.55C110.55 22.22 110.63 22.22 111.44 16.52L103.08 14.74C91.98 14.74 91.98 20.44 91.98 34.95C91.98 49.67 91.98 55.52 103.08 55.52C106.11 55.52 108.19 54.19 111.15 53.52L111.15 47.75C108.19 48.27 106.11 49.23 103.08 49.23C98.57 49.23 98.57 44.94 98.57 34.95C98.57 24.81 98.57 21.03 103.08 21.03ZM124.84 12.75C124.84 8.75 124.84 8.75 118.18 8.75L118.18 12.52L118.77 15.26L114.85 15.26L114.85 21.48L118.77 21.48L118.18 23.33L118.18 37.98C118.18 51.37 118.18 55.37 126.98 55.37L132.98 55L132.98 49.23L127.35 49.23C125.21 48.78 124.84 46.05 124.84 37.98L124.84 23.33L124.17 21.48L126.32 21.48C131.57 21.48 131.64 20.66 131.64 15.26L124.24 15.26ZM154.51 44.42C154.66 44.94 155.1 46.19 155.25 46.64L149.03 49.23C144.74 49.01 144.74 43.83 144.74 34.8L144.74 19.7C144.74 15.26 144.74 15.26 138.16 15.26L138.16 34.95C138.16 49.6 138.16 55.52 149.77 55.52L154.51 53C154.66 55.07 155.84 55 161.17 55L161.17 19.7C161.17 15.26 161.17 15.26 154.51 15.26ZM184.55 7.94C189.96 8.9 190.62 8.68 191.44 2.98L181.37 0.83C168.2 0.83 168.2 5.79 168.2 13.86C168.2 20.15 174.12 25.03 179.3 29.54C183.07 32.73 186.63 35.54 186.63 39.46C186.7 44.12 186.7 48.41 180.11 48.41C176.04 48.41 171.9 47.9 167.83 47.67L167.83 53.96C171.9 54.48 175.9 55.52 179.97 55.52C194.17 55.52 194.17 45.82 194.17 37.31C194.17 32.06 188.48 27.1 183.81 23.4C179.89 20.07 175.6 16.67 175.6 13.41C175.6 9.93 175.67 7.42 181.74 7.42ZM211.42 46.12L210.31 46.12L206.09 19.48C205.42 15.26 205.27 15.26 198.61 15.26L206.98 56.55C207.05 56.92 207.05 57.22 207.05 57.52C207.05 60.62 204.02 63.51 200.09 63.51L200.09 68.84C211.64 68.84 212.82 62.84 214.15 56.18L222 17.63C222 15.26 220.74 15.26 215.93 15.26ZM239.83 21.55C244.49 22.29 244.57 22.22 245.38 16.52L236.72 14.74C226.14 14.74 226.07 19.92 226.07 25.84C226.07 33.54 239.46 39.16 239.46 42.64C239.46 46.64 239.54 49.23 236.06 49.23C232.73 49.23 229.47 48.71 226.14 48.49L226.14 54.26C229.4 54.7 232.73 55.52 235.98 55.52C246.57 55.52 246.57 48.41 246.57 42.05C246.57 34.43 232.73 29.54 232.73 25.47C232.73 23.03 232.73 21.03 236.95 21.03Z" />
</svg>